<svg width="686" height="72" viewBox="0 0 686 72" fill="none" xmlns="http://www.w3.org/2000/svg">
<path fill-rule="evenodd" clip-rule="evenodd" d="M0 11.061C0 6.34639 3.82198 2.52441 8.53663 2.52441H71.2966C76.0113 2.52441 79.8333 6.34639 79.8333 11.061C79.8333 15.7757 76.0113 19.5977 71.2966 19.5977H17.0733V36.5071H0V11.061Z" fill="#E32424"/>
<path fill-rule="evenodd" clip-rule="evenodd" d="M17.0725 36.4883H68.6084C73.3231 36.4883 77.1451 40.3103 77.1451 45.0249C77.1451 49.7396 73.3231 53.5615 68.6084 53.5615H34.1458V62.3521C34.1458 67.0668 30.3238 70.8888 25.6091 70.8888C20.8945 70.8888 17.0725 67.0668 17.0725 62.3521V36.4883Z" fill="#E32424"/>
<path d="M602.903 18.5093H614.487L626.898 57.0883L639.31 18.5093H649.342L661.754 57.0883L674.165 18.5093H685.749L667.649 70.2237H657.41L644.378 32.8859L631.242 70.2237H621.003L602.903 18.5093Z" fill="#E32424"/>
<path d="M574.329 71.2577C558.298 71.2577 548.265 59.1565 548.265 44.3661C548.265 29.5758 558.298 17.4746 574.329 17.4746C590.361 17.4746 600.29 29.5758 600.29 44.3661C600.29 59.1565 590.361 71.2577 574.329 71.2577ZM559.125 44.3661C559.125 53.5713 564.607 61.4319 574.329 61.4319C583.948 61.4319 589.43 53.5713 589.43 44.3661C589.43 35.0575 583.948 27.1969 574.329 27.1969C564.607 27.1969 559.125 35.0575 559.125 44.3661Z" fill="#E32424"/>
<path d="M527.957 1.41455H539.271L539.271 70.0092H527.957L527.957 1.41455Z" fill="#E32424"/>
<path d="M474.517 1.41455H520.233V11.1369H485.377L485.378 34.182H517.527V43.4907H485.378V70.2235H474.518L474.517 1.41455Z" fill="#E32424"/>
<path d="M425.532 71.2577C409.5 71.2577 399.468 59.1565 399.468 44.3661C399.468 29.5758 409.5 17.4746 425.532 17.4746C441.563 17.4746 451.492 29.5758 451.492 44.3661C451.492 59.1565 441.563 71.2577 425.532 71.2577ZM410.328 44.3661C410.328 53.5713 415.809 61.4319 425.532 61.4319C435.151 61.4319 440.632 53.5713 440.632 44.3661C440.632 35.0575 435.151 27.1969 425.532 27.1969C415.809 27.1969 410.328 35.0575 410.328 44.3661Z" fill="#E32424"/>
<path d="M394.89 69.7064C393.545 70.1201 391.373 70.7406 388.064 70.7406C378.135 70.7406 370.791 65.7761 370.791 54.0886V28.2314H361.689V18.509H370.791V1.41455H381.651V18.509H396.235V28.2314H381.651V51.9166C381.651 57.812 384.857 60.9149 389.925 60.9149C392.201 60.9149 393.959 60.2943 394.89 59.7772V69.7064Z" fill="#E32424"/>
<path d="M329.437 70.2235C329.127 68.1549 329.127 65.9829 329.127 63.9143V60.0875C326.024 66.7069 320.439 71.2578 311.957 71.2578C298.512 71.2578 289.513 59.5703 289.513 44.3663C289.513 29.0588 298.512 17.4747 311.957 17.4747C320.439 17.4747 326.024 22.0256 329.127 28.5416V1.41455H339.987V63.604C339.987 65.5692 340.09 68.0515 340.4 70.2235H329.437ZM300.373 44.3663C300.373 53.5714 305.441 61.432 314.75 61.432C323.955 61.432 329.127 53.5714 329.127 44.3663C329.127 35.0577 323.955 27.1971 314.75 27.1971C305.441 27.1971 300.373 35.0577 300.373 44.3663Z" fill="#E32424"/>
<path d="M258.963 71.2577C243.242 71.2577 232.692 59.053 232.692 44.3661C232.692 29.5758 243.242 17.4746 258.963 17.4746C274.581 17.4746 284.924 29.3689 283.269 47.469H243.759C244.69 55.8467 249.861 62.3628 259.066 62.3628C265.996 62.3628 270.857 58.6393 272.823 53.0542L282.855 54.0884C280.58 63.8108 271.788 71.2577 258.963 71.2577ZM243.966 39.2981H272.719C271.581 31.8512 267.237 26.2661 258.756 26.2661C250.172 26.2661 245.414 31.8512 243.966 39.2981Z" fill="#E32424"/>
<path d="M180.847 70.2237L200.292 43.1254L182.192 18.5093H194.5L207.015 35.8853L219.633 18.5093H231.941L213.634 43.5391L232.769 70.2237H220.461L206.808 50.986L193.155 70.2237H180.847Z" fill="#E32424"/>
<path d="M163.789 18.5093H174.649V70.2237H163.789V18.5093Z" fill="#E32424"/>
<path d="M169.075 0C165.796 0 163.064 2.73222 163.064 6.01087C163.064 9.3806 165.796 12.0217 169.075 12.0217C172.445 12.0217 175.086 9.3806 175.086 6.01087C175.086 2.73222 172.445 0 169.075 0Z" fill="#E32424"/>
<path d="M109.623 1.41455H155.339V11.1369H120.483L120.484 34.182H152.633V43.4907H120.484V70.2235H109.624L109.623 1.41455Z" fill="#E32424"/>
</svg>
